<?xml version="1.0" encoding="UTF-8" standalone="no"?><!DOCTYPE svg PUBLIC "-//W3C//DTD SVG 1.1//EN" "http://www.w3.org/Graphics/SVG/1.1/DTD/svg11.dtd"><svg width="100%" height="100%" viewBox="0 0 800 85" version="1.1" xmlns="http://www.w3.org/2000/svg" xmlns:xlink="http://www.w3.org/1999/xlink" xml:space="preserve" xmlns:serif="http://www.serif.com/" style="fill-rule:evenodd;clip-rule:evenodd;stroke-linejoin:round;stroke-miterlimit:2;"><path id="monumental" d="M88.405,84.203l-15.477,0c-0.4,-0.005 -0.757,-0.344 -0.762,-0.76l0,-48.084l-24.313,34.402l-0.147,0.139l-0.188,0.072l-0.201,-0.005l-0.185,-0.082l-0.138,-0.145l-20.166,-31.851c0,8.618 0,17.236 0,25.854c0,3.676 2.398,7.157 5.67,8.614c1.242,0.553 2.593,0.859 3.957,0.874c0.479,0.003 1.012,-0.042 1.262,0.366c0.153,0.251 0.143,0.587 -0.026,0.834l-6.683,9.456c-0.048,0.067 -0.067,0.084 -0.104,0.118c-0.139,0.128 -0.326,0.2 -0.515,0.203l-28.629,0.001c-0.548,-0.01 -0.977,-0.681 -0.624,-1.201l6.684,-9.457c0.295,-0.404 0.93,-0.316 1.486,-0.361c0.914,-0.075 1.823,-0.257 2.683,-0.568l0.012,-0.089c0.039,-16.171 0.053,-32.422 0.009,-48.517c-0.003,-1.113 0.07,-2.231 -0.046,-3.398c-0.245,-2.472 -1.42,-4.853 -3.355,-6.491c-1.719,-1.456 -3.989,-2.264 -6.214,-2.302l-0.031,0c-0.201,-0.002 -0.402,0 -0.603,0c0,0 -0.685,-0.151 -0.754,-0.661c-0.026,-0.187 0.022,-0.38 0.13,-0.54l6.683,-9.456c0.145,-0.199 0.346,-0.316 0.619,-0.32c8.106,0 16.212,-0.127 24.316,0c0.255,0.012 0.468,0.12 0.621,0.352l20.405,32.228c0,0 22.81,-32.275 22.81,-32.275c0.147,-0.19 0.344,-0.301 0.608,-0.305l17.626,0c0.395,0.005 0.747,0.337 0.762,0.745c0.297,24.253 0,48.509 0,72.764c-0.001,0.151 -0.048,0.3 -0.132,0.426c-2.11,3.056 -4.287,6.066 -6.431,9.1c-0.048,0.066 -0.067,0.084 -0.104,0.118c-0.139,0.128 -0.326,0.199 -0.515,0.202Zm-13.178,-2.082l12.483,0l4.814,-6.812l-12.481,-0.002c-1.606,2.271 -3.211,4.543 -4.816,6.814Zm-54.685,-9.523c-0.028,0.725 0.096,1.459 0.274,2.173c0.579,2.324 2.055,4.419 4.067,5.728c1.437,0.935 3.126,1.509 4.813,1.613c0,0 4.92,-6.952 4.92,-6.952c-3.43,-0.584 -6.621,-2.736 -8.358,-5.801c-0.977,-1.724 -1.59,-3.708 -1.525,-5.667l0,-29.111l-4.191,-6.62c0,14.879 0,29.758 0,44.637Zm-8.893,2.316c-0.813,0.213 -1.651,0.344 -2.492,0.386l-4.654,6.568c3.412,-0.812 6.313,-3.486 7.197,-6.966c0,0 -0.031,0.007 -0.051,0.012Zm62.611,-42.518l0,47.471l4.191,-5.93l0,-47.472c-1.397,1.977 -2.794,3.954 -4.191,5.931Zm71.369,40.949c-5.367,0 -10.302,-0.945 -14.807,-2.835c-4.505,-1.89 -8.397,-4.444 -11.677,-7.66c-3.279,-3.217 -5.83,-6.997 -7.652,-11.341c-1.821,-4.344 -2.732,-9.003 -2.732,-13.976l0,-0.199c0,-4.974 0.927,-9.633 2.782,-13.977c1.855,-4.344 4.422,-8.158 7.702,-11.44c3.279,-3.283 7.188,-5.87 11.726,-7.76c4.538,-1.89 9.49,-2.835 14.856,-2.835c5.367,0 10.302,0.945 14.807,2.835c4.505,1.89 8.397,4.444 11.677,7.66c3.279,3.217 5.83,6.997 7.652,11.341c1.822,4.344 2.732,9.003 2.732,13.977l0,0.199c0,4.974 -0.927,9.632 -2.782,13.976c-1.855,4.344 -4.422,8.158 -7.702,11.44c-3.279,3.283 -7.188,5.87 -11.726,7.76c-4.538,1.89 -9.49,2.835 -14.856,2.835Zm158.204,-0.099c-9.341,0 -16.694,-2.587 -22.061,-7.76c-5.366,-5.173 -8.049,-12.899 -8.049,-23.178l0,-39.792l15.304,0l0,39.394c0,5.703 1.325,9.997 3.975,12.882c2.65,2.885 6.326,4.328 11.03,4.328c4.704,0 8.381,-1.393 11.031,-4.179c2.65,-2.785 3.975,-6.963 3.975,-12.534l0,-39.891l15.304,0l0,39.294c0,5.306 -0.713,9.915 -2.137,13.828c-1.424,3.913 -3.462,7.179 -6.112,9.798c-2.65,2.62 -5.863,4.576 -9.639,5.87c-3.776,1.293 -7.983,1.94 -12.621,1.94Zm435.66,-15.022l34.682,0l0,13.927l-49.986,0l0,-69.635l15.304,0l0,55.708Zm-250.822,-42.08l-37.266,0l0,14.127l32.794,0l0,13.628l-32.794,0l0,14.624l37.763,0l0,13.628l-52.967,0l0,-69.635l52.47,0l0,13.628Zm145.286,0.498l-21.167,0l0,55.509l-15.304,0l0,-55.509l-21.167,0l0,-14.126l57.638,0l0,14.126Zm-116.07,55.509l-15.105,0l0,-69.635l14.111,0l32.595,42.875l0,-42.875l15.105,0l0,69.635l-13.018,0l-33.688,-44.268l0,44.268Zm-306.472,0l-15.105,0l0,-69.635l14.111,0l32.595,42.875l0,-42.875l15.105,0l0,69.635l-13.018,0l-33.688,-44.268l0,44.268Zm153.534,0l-15.006,0l0,-69.635l16.497,0l18.285,29.446l18.285,-29.446l16.496,0l0,69.635l-15.205,0l0,-45.462l-19.576,29.745l-0.398,0l-19.378,-29.446l0,45.163Zm348.508,0l-16,0l-6.36,-15.618l-29.415,0l-6.36,15.618l-15.601,0l29.812,-70.133l14.111,0l29.813,70.133Zm80.092,-0.514l-0.047,0c-0.671,0 -1.275,-0.098 -1.813,-0.293c-0.539,-0.195 -1.014,-0.464 -1.428,-0.807c-0.413,-0.343 -0.764,-0.753 -1.053,-1.228c-0.288,-0.476 -0.51,-1.003 -0.666,-1.58l-6.2,4.422l0,-3.392l5.708,-4.024l0,-3.604l-5.708,0l0,-2.877l16.377,0l0,7.299c0,1.03 -0.144,1.942 -0.433,2.738c-0.288,0.795 -0.69,1.458 -1.205,1.989c-0.452,0.436 -0.974,0.772 -1.567,1.006c-0.593,0.234 -1.248,0.351 -1.965,0.351Zm2.55,-10.506l-5.498,0l0,4.212c0,1.029 0.245,1.848 0.737,2.457c0.491,0.608 1.158,0.912 2,0.912l0.047,0c0.889,0 1.563,-0.296 2.024,-0.889c0.46,-0.593 0.69,-1.427 0.69,-2.504l0,-4.188Zm-650.272,-1.912c3.048,0 5.864,-0.564 8.447,-1.691c2.584,-1.128 4.787,-2.686 6.609,-4.676c1.822,-1.989 3.246,-4.294 4.273,-6.913c1.027,-2.62 1.54,-5.422 1.54,-8.406l0,-0.199c0,-2.985 -0.513,-5.803 -1.54,-8.456c-1.027,-2.653 -2.485,-4.974 -4.373,-6.964c-1.888,-1.989 -4.124,-3.564 -6.707,-4.725c-2.584,-1.161 -5.4,-1.741 -8.447,-1.741c-3.114,0 -5.946,0.564 -8.497,1.691c-2.551,1.128 -4.737,2.686 -6.559,4.676c-1.822,1.989 -3.246,4.294 -4.273,6.914c-1.027,2.619 -1.54,5.421 -1.54,8.406l0,0.199c0,2.984 0.513,5.803 1.54,8.455c1.027,2.653 2.485,4.974 4.373,6.964c1.888,1.989 4.107,3.565 6.658,4.725c2.55,1.161 5.383,1.741 8.496,1.741Zm652.892,-16.664l-9.312,0c-1.528,0 -2.69,0.366 -3.486,1.099c-0.795,0.733 -1.193,1.747 -1.193,3.042c0,1.279 0.382,2.285 1.146,3.018c0.765,0.733 1.903,1.099 3.416,1.1l9.429,0l0,2.877l-9.288,0c-1.217,0 -2.285,-0.167 -3.206,-0.503c-0.92,-0.335 -1.688,-0.807 -2.304,-1.415c-0.616,-0.609 -1.076,-1.346 -1.381,-2.211c-0.304,-0.866 -0.456,-1.837 -0.456,-2.913c0,-1.061 0.152,-2.02 0.456,-2.878c0.305,-0.858 0.761,-1.591 1.369,-2.199c0.608,-0.608 1.361,-1.076 2.258,-1.404c0.897,-0.327 1.938,-0.491 3.123,-0.491l9.429,0l0,2.878Zm-113.087,0.449l-9.242,-22.582l-9.242,22.582l18.484,0Zm-658.086,-32.189l19.949,31.508l4.98,-7.048l-19.949,-31.507c-1.66,2.349 -3.32,4.698 -4.98,7.047Zm763.031,25.025l-0.047,0c-1.154,0 -2.242,-0.211 -3.263,-0.632c-1.022,-0.421 -1.919,-1.014 -2.691,-1.778c-0.772,-0.764 -1.384,-1.669 -1.837,-2.714c-0.452,-1.045 -0.678,-2.199 -0.678,-3.463c0,-1.263 0.222,-2.418 0.667,-3.463c0.444,-1.045 1.049,-1.942 1.813,-2.69c0.764,-0.749 1.657,-1.334 2.679,-1.755c1.021,-0.421 2.109,-0.632 3.264,-0.632l0.046,0c1.155,0 2.243,0.211 3.264,0.632c1.022,0.421 1.919,1.014 2.691,1.778c0.772,0.764 1.384,1.669 1.836,2.714c0.453,1.045 0.679,2.199 0.679,3.463c0,1.263 -0.222,2.418 -0.667,3.463c-0.444,1.045 -1.049,1.942 -1.813,2.69c-0.764,0.749 -1.657,1.334 -2.679,1.755c-1.022,0.421 -2.109,0.632 -3.264,0.632Zm0,-14.109l-0.047,0c-0.795,0.001 -1.548,0.137 -2.257,0.41c-0.71,0.273 -1.326,0.655 -1.849,1.146c-0.522,0.492 -0.939,1.081 -1.251,1.767c-0.312,0.686 -0.468,1.435 -0.468,2.246c0,0.811 0.152,1.556 0.456,2.234c0.304,0.679 0.717,1.26 1.24,1.743c0.522,0.484 1.135,0.862 1.837,1.135c0.701,0.273 1.45,0.41 2.246,0.41l0.046,0c0.796,0 1.548,-0.137 2.258,-0.41c0.71,-0.273 1.326,-0.655 1.849,-1.146c0.522,-0.492 0.939,-1.081 1.251,-1.767c0.312,-0.686 0.468,-1.435 0.468,-2.246c0,-0.811 -0.152,-1.556 -0.456,-2.234c-0.304,-0.679 -0.718,-1.26 -1.24,-1.743c-0.523,-0.484 -1.135,-0.862 -1.837,-1.135c-0.702,-0.273 -1.45,-0.409 -2.246,-0.41Zm8.142,-5.942l-2.667,0l0,-5.194l-13.71,0l0,-2.902l13.71,0l0,-5.194l2.667,0l0,13.29Zm-768.16,-12.859l-21.425,0l-4.814,6.812l21.424,0l4.815,-6.812Z" style="fill:#fff;fill-rule:nonzero;"/></svg>